<svg xmlns="http://www.w3.org/2000/svg" width="497" height="433" viewBox="0 0 497 433">
<g>
<path d="M 151.06 404.33 C83.50,404.06 64.44,403.72 63.82,402.74 C63.39,402.06 63.02,317.04 63.02,213.80 L 63.00 26.10 L 147.25 25.52 C251.68,24.80 251.16,24.80 353.75,25.52 L 438.00 26.11 L 438.00 215.06 L 438.00 404.00 L 359.25 404.00 C315.94,404.00 270.83,404.15 259.00,404.33 C247.18,404.51 198.60,404.51 151.06,404.33 ZM 179.00 389.70 C130.97,368.01 94.61,330.21 76.37,283.00 L 73.09 274.50 L 73.05 334.25 L 73.00 394.00 L 130.75 394.00 L 188.50 393.99 L 179.00 389.70 ZM 428.95 334.25 L 428.90 274.50 L 424.68 285.00 C406.35,330.59 372.81,365.99 326.50,388.61 L 315.50 393.98 L 372.25 393.99 L 429.00 394.00 L 428.95 334.25 ZM 234.19 390.25 C235.60,388.74 237.29,386.46 237.94,385.19 C239.25,382.65 239.33,383.23 234.51,361.00 C229.87,339.58 229.65,337.04 231.44,325.07 C233.39,312.01 233.39,309.36 231.35,296.28 C229.43,283.94 229.35,283.96 222.79,298.00 C220.60,302.67 217.80,307.85 216.56,309.50 C213.01,314.21 211.33,318.02 209.97,324.50 C208.10,333.34 205.21,338.51 195.21,350.91 C186.55,361.63 178.21,375.92 179.44,377.91 C180.38,379.42 200.00,386.79 210.20,389.45 C227.18,393.89 230.69,394.01 234.19,390.25 ZM 284.76 391.41 C298.76,388.52 323.00,379.91 323.00,377.83 C323.00,377.34 321.47,373.85 319.60,370.06 C315.95,362.69 311.33,356.04 303.21,346.54 C296.91,339.17 293.74,332.72 291.61,322.97 C290.46,317.73 288.88,313.93 286.42,310.47 C284.47,307.74 280.80,301.34 278.25,296.25 C275.71,291.16 273.33,287.00 272.96,287.00 C272.10,287.00 269.00,305.74 269.00,310.95 C269.00,313.18 269.72,319.16 270.60,324.25 C272.73,336.48 272.13,342.31 266.36,366.00 C263.89,376.10 263.12,383.26 264.24,385.50 C264.79,386.60 266.40,388.74 267.81,390.25 C270.85,393.52 273.66,393.71 284.76,391.41 ZM 252.95 350.50 C252.98,335.65 253.01,321.48 253.02,319.00 C253.03,316.52 252.89,307.98 252.70,300.00 C252.52,292.02 252.25,279.20 252.12,271.50 C251.72,248.69 250.11,258.86 249.39,288.79 C249.04,303.48 248.78,316.85 248.82,318.50 C248.87,320.15 249.06,336.58 249.26,355.00 C249.46,373.42 250.04,389.40 250.55,390.50 C252.08,393.79 252.88,380.31 252.95,350.50 ZM 167.74 367.48 C172.78,365.99 172.87,365.89 174.89,359.73 C176.01,356.31 178.55,347.23 180.53,339.57 C184.61,323.81 185.20,322.44 192.67,311.80 C199.73,301.73 204.84,290.40 205.57,283.20 C207.10,268.21 210.70,255.48 216.89,243.20 C218.57,239.89 220.68,232.89 221.94,226.50 C223.13,220.45 224.80,212.80 225.65,209.50 C228.26,199.34 227.63,191.20 223.09,176.13 C220.72,168.30 217.99,161.36 216.48,159.38 L 213.90 156.00 L 197.70 156.02 C187.03,156.03 179.45,156.53 175.50,157.48 C167.10,159.51 158.83,159.34 146.82,156.90 C135.58,154.62 126.62,154.17 117.89,155.44 C107.99,156.87 98.24,152.03 101.98,147.52 C105.13,143.73 117.10,141.98 125.24,144.13 C128.55,145.00 132.74,144.90 144.00,143.68 C154.54,142.54 163.56,142.27 177.00,142.69 C187.18,143.01 195.20,142.95 194.84,142.56 C193.95,141.60 173.44,137.00 170.08,137.00 C163.39,137.00 153.37,133.27 138.00,125.05 C132.08,121.89 129.42,121.04 125.38,121.02 C119.26,121.00 112.87,118.90 108.31,115.43 C106.48,114.03 104.60,113.13 104.12,113.43 C102.99,114.12 96.13,125.74 92.07,133.83 C85.37,147.17 80.09,163.52 76.34,182.50 C73.79,195.41 73.82,229.37 76.38,244.00 C79.95,264.29 87.82,286.29 97.62,303.34 C108.72,322.65 127.80,344.47 144.50,356.95 C151.29,362.02 161.53,368.85 162.57,368.99 C162.61,369.00 164.93,368.32 167.74,367.48 ZM 347.40 364.53 C369.33,350.13 391.64,325.93 404.82,302.26 C422.30,270.87 430.12,234.42 427.17,198.16 C426.51,190.10 425.08,179.57 423.99,174.77 C419.52,155.14 410.60,132.96 401.52,118.92 C397.59,112.84 396.63,111.90 395.84,113.32 C394.12,116.40 384.97,120.23 378.02,120.79 C372.56,121.22 369.28,122.40 357.85,128.04 C347.41,133.20 342.48,135.05 336.85,135.93 C323.82,137.96 308.53,141.27 307.50,142.27 C306.85,142.91 313.08,143.05 325.50,142.66 C339.51,142.22 348.29,142.47 358.93,143.63 C369.94,144.83 374.24,144.95 377.05,144.10 C382.72,142.41 389.63,142.79 394.99,145.09 C400.73,147.56 402.00,149.78 399.03,152.18 C395.24,155.25 386.72,156.51 379.49,155.07 C372.57,153.70 368.29,154.03 353.14,157.10 C342.05,159.35 334.68,159.45 326.50,157.48 C322.56,156.53 314.98,156.03 304.40,156.02 C284.48,156.00 285.32,155.34 279.03,176.00 C274.72,190.16 274.09,200.60 276.84,212.00 C277.97,216.68 279.44,223.65 280.11,227.50 C280.82,231.54 283.42,239.14 286.28,245.47 C291.39,256.81 295.98,272.54 296.02,278.88 C296.09,287.89 301.53,301.31 309.46,312.01 C315.85,320.62 318.07,325.86 322.42,342.53 C328.57,366.08 328.42,365.76 333.83,367.42 C340.28,369.41 339.82,369.51 347.40,364.53 ZM 82.93 128.50 C101.40,90.70 133.73,59.15 172.75,40.85 C178.39,38.20 183.00,35.85 183.00,35.61 C183.00,35.38 158.36,35.36 128.25,35.56 L 73.50 35.94 L 73.28 94.22 L 73.07 152.50 L 75.55 145.50 C76.92,141.65 80.24,134.00 82.93,128.50 ZM 428.58 36.36 C428.26,35.52 413.56,35.23 373.57,35.25 C343.56,35.27 319.00,35.45 319.00,35.65 C319.00,35.85 322.75,37.75 327.33,39.87 C352.67,51.57 378.88,71.66 395.16,91.84 C407.98,107.74 420.17,128.83 426.11,145.39 L 428.50 152.05 L 428.76 94.78 C428.90,63.27 428.82,36.99 428.58,36.36 ZM 237.53 125.57 C239.00,124.61 240.06,122.63 240.50,120.02 C241.09,116.50 240.75,115.28 237.91,110.87 C234.22,105.10 233.02,97.51 234.90,91.79 C236.98,85.50 244.88,80.00 251.83,80.00 C256.69,80.00 262.86,83.91 265.73,88.80 C269.65,95.49 269.48,102.10 265.21,108.96 C261.07,115.64 260.66,123.08 264.31,125.47 C268.14,127.98 274.87,128.39 281.35,126.50 C286.34,125.05 288.33,124.96 294.85,125.91 C305.76,127.51 320.73,125.25 331.10,120.46 C336.67,117.89 341.06,116.68 347.60,115.92 C361.61,114.29 366.70,113.05 372.81,109.80 C377.73,107.18 379.48,106.78 385.75,106.87 C389.74,106.93 393.00,106.78 393.00,106.53 C393.00,105.59 383.50,94.25 377.62,88.17 C326.43,35.24 248.14,19.62 180.44,48.84 C160.88,57.28 140.56,71.32 124.75,87.32 C118.42,93.73 109.00,105.15 109.00,106.42 C109.00,106.73 112.04,106.92 115.75,106.84 C121.62,106.72 123.47,107.18 130.00,110.33 C136.11,113.29 139.35,114.15 147.50,114.99 C160.60,116.35 165.33,117.51 172.10,121.00 C179.60,124.87 197.64,127.39 207.16,125.91 C212.19,125.12 214.90,125.23 219.55,126.40 C226.37,128.11 234.21,127.75 237.53,125.57 Z" fill="#F5F5F6"/>
</g>
</svg>
